# xmcd CD database file
#
# Track frame offsets:
#	150
#	44774
#	85217
#	95903
#	121650
#	136423
#	171041
#	199564
#	231684
#	262785
#	308522
#
# Disc length: 4383 seconds
#
# Revision: 0
# Processed by: cddbd v1.5.2PL0 Copyright (c) Steve Scherf et al.
# Submitted via: CDex 1.70beta2
#
DISCID=92111d0b
DTITLE=John Funkhouser Trio - Time
DYEAR=2009
DGENRE=Jazz
TTITLE0=Green Dolphin St.
TTITLE1=Ellipse
TTITLE2=Prelude and Fugue in A Minor - Prelude (More Cowbell!)
TTITLE3=Prelude and Fugue in A Minor - Fugue
TTITLE4=Dyin' Nation - Emancipation Suite - Dyin' Nation
TTITLE5=Dyin' Nation - Emancipation Suite - Emancipation
TTITLE6=Eleventy One
TTITLE7=Come Rain or Come Shine
TTITLE8=Alone Together
TTITLE9=Ode to a Lame Duck
TTITLE10=Kelp
EXTD=YEAR: 2009
EXTT0=
EXTT1=
EXTT2=
EXTT3=
EXTT4=
EXTT5=
EXTT6=
EXTT7=
EXTT8=
EXTT9=
EXTT10=
PLAYORDER=
